<svg width="335" height="212" viewBox="0 0 335 212" fill="none" xmlns="http://www.w3.org/2000/svg">
<g opacity="0.1">
<mask id="path-1-outside-1_6043_56506" maskUnits="userSpaceOnUse" x="0" y="0" width="335" height="212" fill="black">
<rect fill="white" width="335" height="212"/>
<path fill-rule="evenodd" clip-rule="evenodd" d="M160.909 132.107H117.277V100.385H183.737C195.859 73.0479 223.222 53.9804 255.037 53.9804C298.095 53.9804 333 88.9065 333 131.99C333 175.074 298.095 210 255.037 210C226.055 210 200.768 194.177 187.331 170.694C186.299 171.987 185.21 173.287 184.061 174.597C167.421 193.57 144.452 205.84 119.438 209.119C94.4239 212.397 69.0719 206.461 48.1094 192.417C27.1469 178.372 12.0049 157.178 5.50701 132.787C-0.990897 108.396 1.59886 82.4727 12.7934 59.8512C23.9879 37.2297 43.0229 19.4543 66.349 9.83952C89.6751 0.224767 115.7 -0.57293 139.57 7.59517C153.521 12.3687 166.178 20.0139 176.796 29.9138C178.302 31.3179 180.853 31.1306 182.294 29.6599C184.613 27.2936 188.396 29.1112 188.409 32.4252L188.459 45.0427C188.478 50.0177 184.454 54.0612 179.481 54.0612H162.456C159.454 54.0612 156.604 52.8371 154.348 50.8544C147.195 44.5675 138.829 39.6828 129.674 36.5503C112.828 30.7856 94.4604 31.3486 77.9979 38.1343C61.5354 44.9199 48.1014 57.465 40.2008 73.4303C32.3002 89.3955 30.4725 107.691 35.0584 124.905C39.6443 142.119 50.3309 157.077 65.1252 166.989C79.9196 176.901 97.8119 181.09 115.466 178.776C133.037 176.473 149.178 167.884 160.909 154.6L160.909 132.107ZM252.63 121.058L242.419 131.275C241.827 131.868 240.866 131.868 240.266 131.283C239.806 130.834 239.288 130.332 238.726 129.787C235.842 126.991 231.779 123.052 228.3 119.249L227.768 118.668C224.899 115.541 221.842 112.208 220.558 108.354C217.494 99.1601 220.005 88.9691 224.015 90.0406C224.216 90.0944 224.393 90.2185 224.539 90.3673L252.638 118.921C253.222 119.515 253.219 120.469 252.63 121.058ZM268.354 134.675C267.565 133.885 266.285 133.884 265.495 134.673L261.283 138.883C260.494 139.673 260.493 140.954 261.282 141.744L288.588 169.094L288.623 169.13C290.571 171.086 293.736 171.092 295.691 169.143C297.646 167.194 297.652 164.027 295.704 162.071L295.661 162.028L268.354 134.675ZM280.199 98.0142C280.122 98.0663 280.049 98.1265 279.981 98.1948L273.19 104.968L273.187 104.973L273.19 104.98L273.189 104.992L273.165 105.016C272.581 105.597 272.559 106.56 273.117 107.166C273.674 107.772 274.599 107.793 275.183 107.212C275.201 107.194 275.219 107.176 275.236 107.157L275.302 107.083C275.345 107.033 275.389 106.984 275.435 106.937L282.084 100.306C282.187 100.204 282.271 100.09 282.338 99.9684L284.643 97.6558C284.723 97.5548 284.809 97.4574 284.902 97.3642C286.187 96.0791 288.269 96.0791 289.553 97.3642C290.838 98.6494 290.838 100.733 289.553 102.018L289.504 102.067L289.5 102.075L289.503 102.084L289.507 102.095L289.503 102.101L281.456 110.175L281.461 110.183L280.631 111.011L280.631 111.022L280.633 111.028L280.631 111.034L280.603 111.061C279.991 111.669 279.969 112.677 280.552 113.312C281.136 113.947 282.105 113.968 282.716 113.36L282.742 113.333C282.758 113.317 282.773 113.301 282.787 113.284L282.803 113.34L291.34 104.776C291.42 104.675 291.506 104.577 291.599 104.484C292.884 103.199 294.966 103.199 296.25 104.484C297.535 105.769 297.535 107.853 296.25 109.138L296.228 109.16L296.215 109.173L296.201 109.187L296.197 109.195L296.2 109.204L296.204 109.211L296.2 109.22L280.028 125.445C279.852 125.622 279.646 125.751 279.426 125.833C277.123 128.093 273.968 129.487 270.487 129.487C268.79 129.487 267.171 129.156 265.691 128.555L225.627 168.749C225.51 168.895 225.384 169.036 225.249 169.171C223.298 171.124 220.133 171.124 218.182 169.171C216.23 167.218 216.23 164.052 218.182 162.099L218.215 162.067L218.219 162.055L218.215 162.044L218.21 162.032L218.215 162.021L258.635 121.47C258.045 120 257.721 118.395 257.721 116.714C257.721 113.328 259.037 110.251 261.185 107.965C261.266 107.758 261.391 107.563 261.558 107.395L277.528 91.3737C277.607 91.2727 277.694 91.1753 277.787 91.0821C279.071 89.7969 281.154 89.7969 282.438 91.0821C283.722 92.3673 283.722 94.4509 282.438 95.7361L282.388 95.7849L282.388 95.8019L282.388 95.8186L280.199 98.0142Z"/>
</mask>
<path fill-rule="evenodd" clip-rule="evenodd" d="M160.909 132.107H117.277V100.385H183.737C195.859 73.0479 223.222 53.9804 255.037 53.9804C298.095 53.9804 333 88.9065 333 131.99C333 175.074 298.095 210 255.037 210C226.055 210 200.768 194.177 187.331 170.694C186.299 171.987 185.21 173.287 184.061 174.597C167.421 193.57 144.452 205.84 119.438 209.119C94.4239 212.397 69.0719 206.461 48.1094 192.417C27.1469 178.372 12.0049 157.178 5.50701 132.787C-0.990897 108.396 1.59886 82.4727 12.7934 59.8512C23.9879 37.2297 43.0229 19.4543 66.349 9.83952C89.6751 0.224767 115.7 -0.57293 139.57 7.59517C153.521 12.3687 166.178 20.0139 176.796 29.9138C178.302 31.3179 180.853 31.1306 182.294 29.6599C184.613 27.2936 188.396 29.1112 188.409 32.4252L188.459 45.0427C188.478 50.0177 184.454 54.0612 179.481 54.0612H162.456C159.454 54.0612 156.604 52.8371 154.348 50.8544C147.195 44.5675 138.829 39.6828 129.674 36.5503C112.828 30.7856 94.4604 31.3486 77.9979 38.1343C61.5354 44.9199 48.1014 57.465 40.2008 73.4303C32.3002 89.3955 30.4725 107.691 35.0584 124.905C39.6443 142.119 50.3309 157.077 65.1252 166.989C79.9196 176.901 97.8119 181.09 115.466 178.776C133.037 176.473 149.178 167.884 160.909 154.6L160.909 132.107ZM252.63 121.058L242.419 131.275C241.827 131.868 240.866 131.868 240.266 131.283C239.806 130.834 239.288 130.332 238.726 129.787C235.842 126.991 231.779 123.052 228.3 119.249L227.768 118.668C224.899 115.541 221.842 112.208 220.558 108.354C217.494 99.1601 220.005 88.9691 224.015 90.0406C224.216 90.0944 224.393 90.2185 224.539 90.3673L252.638 118.921C253.222 119.515 253.219 120.469 252.63 121.058ZM268.354 134.675C267.565 133.885 266.285 133.884 265.495 134.673L261.283 138.883C260.494 139.673 260.493 140.954 261.282 141.744L288.588 169.094L288.623 169.13C290.571 171.086 293.736 171.092 295.691 169.143C297.646 167.194 297.652 164.027 295.704 162.071L295.661 162.028L268.354 134.675ZM280.199 98.0142C280.122 98.0663 280.049 98.1265 279.981 98.1948L273.19 104.968L273.187 104.973L273.19 104.98L273.189 104.992L273.165 105.016C272.581 105.597 272.559 106.56 273.117 107.166C273.674 107.772 274.599 107.793 275.183 107.212C275.201 107.194 275.219 107.176 275.236 107.157L275.302 107.083C275.345 107.033 275.389 106.984 275.435 106.937L282.084 100.306C282.187 100.204 282.271 100.09 282.338 99.9684L284.643 97.6558C284.723 97.5548 284.809 97.4574 284.902 97.3642C286.187 96.0791 288.269 96.0791 289.553 97.3642C290.838 98.6494 290.838 100.733 289.553 102.018L289.504 102.067L289.5 102.075L289.503 102.084L289.507 102.095L289.503 102.101L281.456 110.175L281.461 110.183L280.631 111.011L280.631 111.022L280.633 111.028L280.631 111.034L280.603 111.061C279.991 111.669 279.969 112.677 280.552 113.312C281.136 113.947 282.105 113.968 282.716 113.36L282.742 113.333C282.758 113.317 282.773 113.301 282.787 113.284L282.803 113.34L291.34 104.776C291.42 104.675 291.506 104.577 291.599 104.484C292.884 103.199 294.966 103.199 296.25 104.484C297.535 105.769 297.535 107.853 296.25 109.138L296.228 109.16L296.215 109.173L296.201 109.187L296.197 109.195L296.2 109.204L296.204 109.211L296.2 109.22L280.028 125.445C279.852 125.622 279.646 125.751 279.426 125.833C277.123 128.093 273.968 129.487 270.487 129.487C268.79 129.487 267.171 129.156 265.691 128.555L225.627 168.749C225.51 168.895 225.384 169.036 225.249 169.171C223.298 171.124 220.133 171.124 218.182 169.171C216.23 167.218 216.23 164.052 218.182 162.099L218.215 162.067L218.219 162.055L218.215 162.044L218.21 162.032L218.215 162.021L258.635 121.47C258.045 120 257.721 118.395 257.721 116.714C257.721 113.328 259.037 110.251 261.185 107.965C261.266 107.758 261.391 107.563 261.558 107.395L277.528 91.3737C277.607 91.2727 277.694 91.1753 277.787 91.0821C279.071 89.7969 281.154 89.7969 282.438 91.0821C283.722 92.3673 283.722 94.4509 282.438 95.7361L282.388 95.7849L282.388 95.8019L282.388 95.8186L280.199 98.0142Z" stroke="white" stroke-width="4" mask="url(#path-1-outside-1_6043_56506)"/>
</g>
</svg>
