<svg width="50" height="54" viewBox="0 0 50 54" fill="none" xmlns="http://www.w3.org/2000/svg">
    <path fill-rule="evenodd" clip-rule="evenodd"
        d="M30.0791 48.9209C30.4687 48.5313 30.9598 48.2608 31.4904 48.1121C41.592 45.2812 49 36.0057 49 25C49 11.7452 38.2548 1 25 1C11.7452 1 1 11.7452 1 25C1 36.0057 8.408 45.2812 18.5096 48.1121C19.0402 48.2608 19.5313 48.5313 19.9209 48.9209L22.8787 51.8787C24.0503 53.0503 25.9497 53.0503 27.1213 51.8787L30.0791 48.9209Z"
        fill="#0070F3" />
    <path
        d="M22.8787 51.8787L22.5251 52.2322L22.8787 51.8787ZM27.1213 51.8787L26.7678 51.5251L27.1213 51.8787ZM18.5096 48.1121L18.3747 48.5936L18.5096 48.1121ZM19.9209 48.9209L20.2744 48.5673L19.9209 48.9209ZM30.0791 48.9209L30.4327 49.2744L30.0791 48.9209ZM48.5 25C48.5 35.7757 41.2469 44.8586 31.3554 47.6306L31.6253 48.5936C41.9371 45.7037 49.5 36.2357 49.5 25H48.5ZM25 1.5C37.9787 1.5 48.5 12.0213 48.5 25H49.5C49.5 11.469 38.531 0.5 25 0.5V1.5ZM1.5 25C1.5 12.0213 12.0213 1.5 25 1.5V0.5C11.469 0.5 0.5 11.469 0.5 25H1.5ZM18.6446 47.6306C8.75312 44.8586 1.5 35.7757 1.5 25H0.5C0.5 36.2357 8.06287 45.7037 18.3747 48.5936L18.6446 47.6306ZM23.2322 51.5251L20.2744 48.5673L19.5673 49.2744L22.5251 52.2322L23.2322 51.5251ZM29.7256 48.5673L26.7678 51.5251L27.4749 52.2322L30.4327 49.2744L29.7256 48.5673ZM22.5251 52.2322C23.892 53.5991 26.108 53.5991 27.4749 52.2322L26.7678 51.5251C25.7915 52.5014 24.2085 52.5014 23.2322 51.5251L22.5251 52.2322ZM18.3747 48.5936C18.8316 48.7216 19.2447 48.9518 19.5673 49.2744L20.2744 48.5673C19.8178 48.1107 19.2487 47.8 18.6446 47.6306L18.3747 48.5936ZM31.3554 47.6306C30.7513 47.8 30.1822 48.1107 29.7256 48.5673L30.4327 49.2744C30.7553 48.9518 31.1684 48.7216 31.6253 48.5936L31.3554 47.6306Z"
        fill="#0050AD" />
</svg>