<svg width="36" height="41" viewBox="0 0 36 41" fill="none" xmlns="http://www.w3.org/2000/svg">
<path d="M17.3035 39.6131L12.127 34.4365H24.2542L19.0777 39.6131C18.5878 40.103 17.7934 40.103 17.3035 39.6131Z" fill="#0070F3" stroke="#0070F3" stroke-width="0.418182"/>
<rect x="1" y="1" width="34" height="34" rx="17" fill="#0070F3"/>
<rect x="1" y="1" width="34" height="34" rx="17" stroke="#0070F3" stroke-width="2"/>
<path fill-rule="evenodd" clip-rule="evenodd" d="M23.7744 10.2325C23.7548 10.2456 23.7362 10.2609 23.7188 10.2782L22.0316 11.96C22.0308 11.9608 22.0307 11.9622 22.0315 11.9631C22.0324 11.964 22.0323 11.9653 22.0314 11.9662L22.025 11.9725C21.8799 12.1167 21.8746 12.3557 22.013 12.5063C22.1515 12.6569 22.3813 12.662 22.5264 12.5178C22.5397 12.5045 22.5522 12.4906 22.5648 12.4766C22.5772 12.4628 22.5896 12.4489 22.6028 12.4358L24.2414 10.8024C24.2666 10.7773 24.2874 10.7495 24.3039 10.7198L24.8773 10.1447C24.897 10.1197 24.9185 10.0955 24.9417 10.0723C25.2608 9.75309 25.7782 9.75309 26.0973 10.0723C26.4165 10.3915 26.4165 10.9091 26.0973 11.2283L26.0849 11.2405C26.0837 11.2416 26.0837 11.2435 26.0849 11.2447C26.086 11.2458 26.086 11.2477 26.0849 11.2488L24.0853 13.2543L24.0864 13.2563L23.8809 13.4612C23.8799 13.4622 23.8799 13.4637 23.8808 13.4646C23.8817 13.4656 23.8816 13.4672 23.8807 13.4681L23.8739 13.4746C23.7221 13.6257 23.7165 13.8759 23.8614 14.0336C24.0064 14.1912 24.247 14.1966 24.3989 14.0456C24.4049 14.0396 24.4107 14.0336 24.4164 14.0274L24.42 14.0407L26.5412 11.9132C26.561 11.8881 26.5825 11.864 26.6056 11.8408C26.9248 11.5216 27.4422 11.5216 27.7613 11.8408C28.0804 12.16 28.0804 12.6776 27.7613 12.9968L27.7558 13.0022L27.7525 13.0055L27.7489 13.0089C27.7477 13.0101 27.7477 13.012 27.7489 13.0132C27.75 13.0143 27.75 13.0162 27.7489 13.0173L23.7306 17.0474C23.6868 17.0913 23.6356 17.1234 23.5811 17.1436C23.0088 17.7052 22.2248 18.0514 21.3599 18.0514C20.9384 18.0514 20.5361 17.9692 20.1682 17.8199L10.2135 27.8038C10.1846 27.84 10.1534 27.8751 10.1198 27.9087C9.63486 28.3937 8.84863 28.3937 8.3637 27.9087C7.87877 27.4236 7.87877 26.6371 8.3637 26.1521L8.37189 26.1439C8.37347 26.1424 8.37348 26.1398 8.37191 26.1383C8.37036 26.1367 8.37036 26.1342 8.37191 26.1327L18.4151 16.06C18.2685 15.6949 18.1879 15.2961 18.1879 14.8786C18.1879 14.0377 18.5149 13.2733 19.0486 12.7055C19.0688 12.6539 19.0998 12.6056 19.1413 12.5639L23.1093 8.58431C23.1291 8.55922 23.1505 8.53503 23.1737 8.51188C23.4928 8.19266 24.0102 8.19266 24.3293 8.51188C24.6485 8.8311 24.6485 9.34866 24.3293 9.66788L24.317 9.68002C24.3158 9.68116 24.3158 9.68306 24.3169 9.68423C24.3181 9.68537 24.3181 9.68723 24.3169 9.68838L23.7744 10.2325ZM10.3271 8.72428L15.6722 14.1541C16.5109 15.0061 16.5056 16.3751 15.6603 17.2206C14.8095 18.0716 13.4165 18.0848 12.5598 17.2397C12.0136 16.701 11.4175 16.0981 10.8779 15.5083L10.7455 15.3639C10.0328 14.5872 9.27303 13.7593 8.95401 12.8021C8.33435 10.9429 8.63258 8.91962 9.30245 8.37519C9.62277 8.11485 10.0376 8.43011 10.3271 8.72428ZM21.3525 19.8634C20.8676 19.378 20.081 19.3776 19.5957 19.8625C19.1106 20.3473 19.1102 21.1335 19.5948 21.6188L25.8428 27.875C25.8502 27.8828 25.8576 27.8904 25.8652 27.8981C26.3492 28.3839 27.1353 28.3854 27.621 27.9013C28.1068 27.4172 28.1082 26.6308 27.6242 26.1449L27.6141 26.1348L27.6139 26.1346L27.6141 26.1341C27.6143 26.1338 27.6143 26.1335 27.6141 26.1333L21.3525 19.8634Z" fill="white"/>
</svg>
