<svg width="512" height="512" viewBox="0 0 512 512" fill="none" xmlns="http://www.w3.org/2000/svg">
<rect width="512" height="512" fill="#0070F3"/>
<path fill-rule="evenodd" clip-rule="evenodd" d="M277.828 322.987C276.67 321.213 274.086 321.013 272.697 322.611C272.578 322.747 272.459 322.884 272.339 323.021C256.131 341.491 233.758 353.436 209.392 356.627C185.027 359.819 160.333 354.04 139.914 340.368C119.495 326.696 104.745 306.064 98.4161 282.319C92.0867 258.575 94.6093 233.339 105.513 211.317C116.418 189.296 134.959 171.991 157.68 162.632C180.401 153.272 205.751 152.495 229.003 160.447C242.774 165.156 255.253 172.737 265.68 182.565C266.91 183.723 268.845 183.728 270.031 182.525C270.521 182.027 270.964 181.574 271.391 181.137C273.29 179.191 276.559 180.528 276.57 183.246L276.646 202.611C276.652 204.305 275.284 205.681 273.59 205.681H247.992C247.181 205.681 246.41 205.357 245.827 204.795C238.352 197.591 229.338 192.046 219.363 188.634C202.953 183.022 185.063 183.57 169.027 190.176C152.991 196.782 139.906 208.994 132.21 224.536C124.514 240.078 122.734 257.889 127.201 274.646C131.668 291.404 142.077 305.965 156.488 315.614C170.899 325.263 188.327 329.342 205.523 327.089C221.133 325.045 235.583 317.91 246.673 306.861C248.746 304.795 249.787 301.939 249.787 299.012V284.658C249.787 283.001 248.444 281.658 246.787 281.658H212.287C209.526 281.658 207.287 279.419 207.287 276.658V255.777C207.287 253.015 209.526 250.777 212.287 250.777H270.073C271.259 250.777 272.33 250.075 272.839 249.003C285.026 223.343 311.178 205.602 341.474 205.602C383.416 205.602 417.416 239.602 417.416 281.544C417.416 323.485 383.416 357.485 341.474 357.485C314.824 357.485 291.38 343.757 277.828 322.987ZM339.879 270.152L328.428 281.603C328.269 281.763 328.011 281.764 327.85 281.605C327.247 281.007 326.475 280.26 325.589 279.401L325.586 279.399L325.586 279.398L325.585 279.397C322.776 276.676 318.819 272.842 315.432 269.141C315.26 268.953 315.087 268.764 314.913 268.575C312.119 265.531 309.14 262.286 307.89 258.535C304.852 249.423 307.441 239.306 311.469 240.774C311.522 240.793 311.572 240.826 311.611 240.866L339.881 269.576C340.039 269.736 340.038 269.994 339.879 270.152ZM353.439 283.15C353.226 282.936 352.881 282.936 352.668 283.149L346.551 289.26C346.338 289.472 346.338 289.818 346.551 290.031L374.138 317.647C374.155 317.664 374.172 317.681 374.188 317.698C376.086 319.603 379.168 319.608 381.073 317.711C382.977 315.813 382.983 312.731 381.085 310.826L381.067 310.808L381.044 310.786L381.043 310.783L381.043 310.781L353.439 283.15ZM366.684 247.767C366.608 247.844 366.515 247.903 366.438 247.979L359.158 255.236L359.156 255.239L359.155 255.241L359.154 255.243L359.155 255.244L359.156 255.248L359.157 255.25C359.159 255.252 359.159 255.255 359.159 255.257L359.156 255.261L359.141 255.276L359.132 255.285C358.564 255.85 358.543 256.787 359.086 257.377C359.628 257.967 360.53 257.987 361.098 257.422C361.141 257.379 361.181 257.335 361.217 257.288C361.234 257.267 361.251 257.247 361.27 257.228L368.437 250.084C368.557 249.965 368.633 249.804 368.753 249.684L370.313 248.12C370.391 248.021 370.475 247.927 370.565 247.836C371.816 246.585 373.845 246.585 375.096 247.836C376.347 249.087 376.347 251.115 375.096 252.366L375.075 252.388L375.047 252.414C375.045 252.416 375.044 252.418 375.044 252.421C375.043 252.424 375.045 252.428 375.047 252.431L375.049 252.433L375.049 252.434L375.051 252.438C375.051 252.441 375.05 252.444 375.047 252.447L367.211 260.304C367.209 260.305 367.209 260.308 367.21 260.31C367.212 260.313 367.211 260.316 367.209 260.317L366.404 261.121C366.401 261.124 366.401 261.129 366.404 261.132L366.406 261.137L366.406 261.139L366.404 261.143L366.402 261.144L366.392 261.154L366.376 261.17C365.781 261.762 365.759 262.743 366.327 263.361C366.895 263.979 367.839 264 368.434 263.408C368.452 263.39 368.469 263.373 368.485 263.355C368.494 263.345 368.51 263.349 368.513 263.362C368.516 263.374 368.531 263.377 368.54 263.369L376.836 255.051C376.914 254.952 376.998 254.858 377.089 254.767C378.34 253.516 380.368 253.516 381.619 254.767C382.87 256.018 382.87 258.046 381.619 259.297L381.598 259.319L381.585 259.331L381.571 259.345C381.566 259.349 381.566 259.357 381.57 259.362C381.575 259.366 381.575 259.373 381.571 259.378L365.818 275.172C365.803 275.187 365.788 275.201 365.773 275.216C365.464 275.503 365.079 275.706 364.763 275.986C362.569 277.928 359.684 279.107 356.524 279.107C355.57 279.107 354.642 279 353.75 278.797C352.573 278.529 351.298 278.756 350.446 279.61L312.827 317.328C312.714 317.47 312.591 317.608 312.459 317.739C310.558 319.64 307.476 319.64 305.575 317.739C303.674 315.838 303.674 312.756 305.575 310.855L305.607 310.823C305.61 310.82 305.612 310.816 305.612 310.811C305.612 310.807 305.61 310.804 305.607 310.801C305.604 310.798 305.603 310.794 305.603 310.791C305.603 310.786 305.604 310.782 305.607 310.779L343.583 272.703C344.43 271.854 344.656 270.587 344.392 269.416C344.194 268.533 344.089 267.615 344.089 266.672C344.089 263.585 345.214 260.76 347.077 258.586C347.325 258.296 347.51 257.951 347.765 257.666C347.785 257.644 347.805 257.622 347.827 257.601L363.382 242.004C363.46 241.906 363.544 241.811 363.634 241.72C364.886 240.469 366.914 240.469 368.165 241.72C369.416 242.971 369.416 245 368.165 246.251C368.149 246.267 368.133 246.283 368.116 246.298L368.114 246.301L368.113 246.304L368.113 246.306C368.113 246.309 368.114 246.313 368.116 246.315C368.118 246.317 368.119 246.319 368.119 246.321L368.119 246.326L368.117 246.33L368.115 246.333L366.684 247.767Z" fill="white"/>
</svg>
