<svg width="38" height="33" viewBox="0 0 38 33" fill="none" xmlns="http://www.w3.org/2000/svg">
<g id="Group 48095552">
<path id="Ellipse 74" d="M28.8668 23.1205C29.644 23.5409 29.9397 24.5174 29.4437 25.2487C27.68 27.8498 25.1814 29.8845 22.2502 31.0815C18.8233 32.481 15.0171 32.6489 11.4802 31.5567C7.94335 30.4645 4.8946 28.1797 2.85344 25.0916C0.812291 22.0036 -0.0949714 18.3033 0.286244 14.6213C0.66746 10.9393 2.31357 7.50338 4.94409 4.89899C7.57461 2.29461 11.0268 0.682889 14.7124 0.338456C18.398 -0.00597635 22.0891 0.938187 25.1566 3.01007C27.7804 4.78224 29.8092 7.28567 31.0026 10.1929C31.3381 11.0103 30.8487 11.9055 30.0018 12.1578V12.1578C29.1549 12.4101 28.273 11.9224 27.9171 11.1136C26.9489 8.91333 25.3754 7.01941 23.3655 5.66187C20.9115 4.00436 17.9587 3.24903 15.0102 3.52457C12.0617 3.80012 9.29992 5.08949 7.1955 7.173C5.09109 9.25651 3.7742 12.0052 3.46923 14.9508C3.16426 17.8964 3.89007 20.8567 5.52299 23.3271C7.15591 25.7976 9.59491 27.6254 12.4244 28.4992C15.2539 29.3729 18.2989 29.2386 21.0404 28.119C23.2858 27.202 25.2139 25.6706 26.6124 23.7154C27.1264 22.9966 28.0896 22.7 28.8668 23.1205V23.1205Z" fill="url(#paint0_angular_82_5432)"/>
<path id="Vector 1" d="M20.5529 24.1522L33.2735 17.8615C33.5592 17.7201 33.8549 17.9902 33.7395 18.2871L28.5539 31.6262C28.4618 31.8632 28.163 31.9411 27.985 31.7746L24.9232 28.9106C24.7949 28.7905 24.7835 28.5876 24.8969 28.442L27.6131 24.9558C27.8841 24.6081 27.4296 24.1966 27.1094 24.4997L23.9232 27.5161C23.7861 27.646 23.5771 27.6514 23.4458 27.5286L20.45 24.7263C20.2744 24.562 20.3279 24.2635 20.5529 24.1522Z" fill="white"/>
</g>
<defs>
<radialGradient id="paint0_angular_82_5432" cx="0" cy="0" r="1" gradientUnits="userSpaceOnUse" gradientTransform="translate(16.2012 16.269) rotate(26.5651) scale(17.8885)">
<stop stop-color="white"/>
<stop offset="1" stop-color="white" stop-opacity="0"/>
</radialGradient>
</defs>
</svg>
